<?xml version="1.0" encoding="UTF-8"?>
<svg width="56px" height="51px" viewBox="0 0 56 51" version="1.1" xmlns="http://www.w3.org/2000/svg" xmlns:xlink="http://www.w3.org/1999/xlink">
    <!-- Generator: sketchtool 53 (72520) - https://sketchapp.com -->
    <title>28DCC4F5-C447-411C-8361-1B9B623A4CB7</title>
    <desc>Created with sketchtool.</desc>
    <defs>
        <polygon id="path-1" points="0 0.178695652 49.458913 0.178695652 49.458913 49.6373913 0 49.6373913"></polygon>
        <polygon id="path-3" points="0.315507246 0.2875 22.7688406 0.2875 22.7688406 49.5288043 0.315507246 49.5288043"></polygon>
    </defs>
    <g id="Desktop-Final" stroke="none" stroke-width="1" fill="none" fill-rule="evenodd">
        <g id="Home" transform="translate(-201.000000, -7.000000)">
            <g id="Group-29" transform="translate(0.000000, -1.000000)">
                <g id="Group-23" transform="translate(201.000000, 8.000000)">
                    <g id="Group-7" transform="translate(0.000000, 1.000000)">
                        <mask id="mask-2" fill="white">
                            <use xlink:href="#path-1"></use>
                        </mask>
                        <g id="Clip-6"></g>
                        <path d="M24.7295652,45.4913768 C13.3799275,45.4913768 4.14623188,36.2580435 4.14623188,24.9080435 C4.14623188,13.5584058 13.3799275,4.32507246 24.7295652,4.32507246 C36.0792029,4.32507246 45.3128986,13.5584058 45.3128986,24.9080435 C45.3128986,36.2580435 36.0792029,45.4913768 24.7295652,45.4913768 M24.7295652,0.178695652 C11.0936957,0.178695652 -0.000144927536,11.2721739 -0.000144927536,24.9080435 C-0.000144927536,38.543913 11.0936957,49.6373913 24.7295652,49.6373913 C38.3654348,49.6373913 49.458913,38.543913 49.458913,24.9080435 C49.458913,11.2721739 38.3654348,0.178695652 24.7295652,0.178695652" id="Fill-5" fill="#104F8E" mask="url(#mask-2)"></path>
                    </g>
                    <path d="M23.99926,45 C15.973278,42.0735371 10.2342494,34.4370124 10.2342494,25.5003657 C10.2342494,16.5629876 15.973648,8.92609715 24,6 C17.0077905,6.41984246 10.984974,10.4445518 7.81853687,16.2170199 C6.64971531,19.0886253 6,22.2202551 6,25.5003657 C6,28.7804764 6.64971531,31.9117404 7.81853687,34.7837116 C10.984974,40.555814 17.0077905,44.5805233 23.99926,45" id="Fill-8" fill="#E7B022"></path>
                    <g id="Group-12" transform="translate(33.000000, 0.000000)">
                        <mask id="mask-4" fill="white">
                            <use xlink:href="#path-3"></use>
                        </mask>
                        <g id="Clip-11"></g>
                        <path d="M0.316231884,0.2875 C7.53471014,2.69655797 13.3488406,8.1932971 16.1865217,15.2063406 C17.739058,18.0987319 18.6223913,21.4016304 18.6223913,24.9081522 C18.6223913,28.4143116 17.7394203,31.7172101 16.1868841,34.6096014 C13.3492029,41.6230072 7.53471014,47.1197464 0.315507246,49.5288043 C12.887971,48.3755435 22.7691304,37.7766304 22.7691304,24.9081522 C22.7691304,12.0403986 12.8883333,1.44112319 0.316231884,0.2875" id="Fill-10" fill="#E7B022" mask="url(#mask-4)"></path>
                    </g>
                </g>
            </g>
        </g>
    </g>
</svg>